<?xml version="1.0" encoding="utf-8"?>
<!-- Generator: Adobe Illustrator 23.0.6, SVG Export Plug-In . SVG Version: 6.00 Build 0)  -->
<svg version="1.1" id="CHS_SA_Texas_Logo" xmlns="http://www.w3.org/2000/svg" xmlns:xlink="http://www.w3.org/1999/xlink" x="0px"
	 y="0px" viewBox="0 0 58.2 50.8" style="enable-background:new 0 0 58.2 50.8;" xml:space="preserve">
<style type="text/css">
	.st0{fill:#FD6208;}
	.st1{fill:#082B93;}
	.st2{fill:#FFFFFF;}
</style>
<path id="Orange_Texas" class="st0" d="M29.5,0H16c-0.6,0-1.1,0.5-1.1,1.1V11l0,8.3H2.1c0,0,0,0-0.1,0c-0.5,0-1.3,0.1-1.7,0.8
	c-0.2,0.3-0.4,0.9-0.1,1.7c0.5,1.2,1.2,2.1,2.8,3c0.3,0.5,0.8,1.4,1.7,1.9c0.2,0.4,0.7,0.9,1.4,1c0.2,0.1,0.4,0.1,0.5,0.2
	c0,0.1,0,0.2,0,0.4c0,0.2,0.1,0.6,0.5,0.9c0.1,0.1,0.1,0.1,0.2,0.1c-0.2,0.7-0.5,1.9,0.7,2.9c0.4,0.4,1,0.7,1.4,1
	c0.2,0.1,0.5,0.3,0.7,0.4c0.1,0.2,0.3,0.5,0.6,0.7c0,0,0.1,0,0.1,0l6.8,3.2c0.3,0.2,0.7,0,0.9-0.3l1.7-2.5c0.1-0.2,0.3-0.4,0.6-0.4
	l1.4-0.5c0.3-0.1,0.6,0,0.8,0.3l2,2.9l1.8,1.8c0.2,0.2,0.3,0.3,0.3,0.5l1.1,2.8c0.2,0.4,0.6,0.7,1.2,0.5v1.2c0,0,0,0,0,0
	c0,0.1,0,0.5,0.2,0.8c0.1,0.2,0.5,0.9,1.2,1.3v0.3c-0.1,0.6,0.3,1.5,1.4,1.9c0.3,0.3,0.7,0.6,1.2,0.6c0.2,0,0.3,0.1,0.4,0.1l0,0
	c0.2,0.1,0.5,0.3,0.8,0.3c0.2,0.1,2,0.5,3.6,0.9c0,0,0,0,0,0c0,0,0,0,0.1,0c0.3,0.3,0.9,0.5,1.4,0.5c0,0,0.1,0,0.1,0
	c0.3,0,0.8,0,1.1-0.1c0.8-0.2,1.1-0.9,1-1.4c0-0.2-0.2-0.8-0.4-1.1c0-0.1-0.1-0.3-0.1-0.4c0-0.2-0.1-2.8-0.1-4.2
	c0-0.1,0-0.2-0.1-0.3c0-0.2,0.1-0.3,0.1-0.5c0.1-0.2,0.1-0.3,0.1-0.5c0-0.1,0.1-0.4,0.1-0.7c0.8-0.7,2.8-2.4,4.8-3.9
	c1-0.3,4-1.2,4.9-2.8c0-0.1,0.1-0.2,0.3-0.6c0,0,0.1,0,0.1,0c0.2,0.1,0.4,0.1,0.5,0.1c0.3,0,0.7-0.1,0.9-0.3
	c0.3-0.2,0.9-0.7,1.3-1.1c0.3-0.3,0.8-0.6,1-0.7c0.3-0.1,0.5-0.2,0.6-0.2c0.4-0.1,0.7-0.3,0.8-0.7c0.1-0.3,0.1-0.6,0-0.9
	c0.4-0.6,0.5-1.2,0.5-1.8c-0.1-1.1,0-1.6,0.3-1.8c0.2-0.2,0.4-0.5,0.4-0.8v-0.4c0,0,0-0.1,0-0.1c0-0.1-0.1-0.4-0.2-0.7
	c0,0,0-0.1-0.1-0.2c0-0.1-0.1-0.1-0.1-0.2c0.1-0.5,0.1-0.9-0.1-1.3c-0.2-0.4-0.4-0.6-0.7-0.8c-0.1-0.1-0.2-0.1-0.2-0.2
	c-0.2-0.1-0.2-0.2-0.2-0.5c0-0.4-0.1-0.7-0.4-0.9c-0.1-0.1-0.5-0.5-0.6-0.8c-0.1-0.8-0.1-1.3-0.1-1.9c0-0.6,0.1-1.8,0.1-1.8
	c0-0.4-0.1-0.7-0.4-0.9c0,0,0-0.1,0-0.1c0-0.2,0-0.5,0-0.7c0-0.5,0-0.9-0.1-1.2c-0.3-0.7-0.8-1.2-1.4-1.2h0c-0.2,0-0.3,0-0.5,0.1
	l-0.1,0c0,0-0.1,0-0.2,0.1c-0.3-0.2-0.9-0.6-1.5-0.6c0,0,0,0-0.1,0c-0.1,0-0.2,0-0.2,0c0,0,0,0-0.1,0c-0.1-0.1-0.2-0.2-0.3-0.3
	c0,0,0,0,0,0c-0.2-0.3-0.6-0.5-1.2-0.5c-0.1,0-0.1,0-0.2,0c-0.3-0.2-0.6-0.4-0.9-0.4c0,0-0.1,0-0.1,0c-0.6,0-1.3,0.4-1.4,0.5
	c-0.2-0.1-0.5-0.2-0.9-0.2c-0.4,0-0.8,0.1-1,0.4c-0.2,0.2-0.4,0.4-0.6,0.6c0,0-0.1,0.1-0.1,0.1c0,0,0,0,0,0
	c-0.4-0.2-0.8-0.4-1.2-0.4c-0.1,0-0.3,0-0.4,0c-0.3,0-0.6,0.1-0.7,0.1c0,0,0,0,0,0c-0.3,0-2-0.3-3.2-0.5c-0.2-0.1-0.4-0.1-0.6-0.1
	c-0.3,0-0.5,0.1-0.8,0.2c-0.1,0-0.1,0.1-0.2,0.1c-0.7-0.2-4.2-1.3-4.2-1.3c-0.1-0.7-1.6-1.1-2.6-0.9v-8C30.5,0.5,30.1,0,29.5,0
	L29.5,0z"/>
<path id="Blue_Texas" class="st1" d="M48.5,12.7L48.5,12.7L48.5,12.7 M46.4,12.8L46.4,12.8L46.4,12.8 M49.6,13L49.6,13L49.6,13
	 M38.5,13.1L38.5,13.1L38.5,13.1 M51.4,13.9L51.4,13.9L51.4,13.9 M53.8,14.2L53.8,14.2L53.8,14.2 M29.5,1.1H16V11l0,9.4H2.1
	c0,0,0,0-0.1,0c-0.3,0-1.3,0.1-0.8,1c0.5,1.1,1,1.8,2.7,2.7c0,0,0.6,1.5,1.7,1.9c0,0,0.2,0.7,0.9,0.8c0.7,0.2,1.1,0.4,1.3,0.5
	c0.2,0.1,0.4,0.4,0.2,0.6c-0.1,0.2-0.4,0.4-0.1,0.6c0.3,0.2,0.8,0.4,0.6,1c-0.2,0.6-0.5,1.4,0.3,2s2.1,1.2,2.4,1.6
	c0,0,0.1,0.3,0.2,0.4l6,2.6c0.3,0.1,0.7,0,0.9-0.3l1.3-2c0.1-0.2,0.4-0.4,0.6-0.5l2.6-0.8c0.3-0.1,0.6,0,0.8,0.3l2.4,3.6l2.1,1.9
	c0.2,0.2,0.3,0.3,0.4,0.6l0.9,2.1l1.3,1.5v0.3v1.2c0,0,0,0.2,0.1,0.3c0.1,0.2,0.4,0.7,0.9,0.9c0.5,0.2,0.5,0.2,0.5,0.2v1
	c0,0-0.1,0.7,0.9,0.9c0,0,0.4,0.5,0.7,0.5c0.4,0.1,0.6,0.2,0.7,0.2s0.3,0.2,0.5,0.2c0.2,0,3.7,1,3.7,1s0.4,0.1,0.4,0.2
	c0.1,0.1,0.5,0.4,0.8,0.4c0,0,0.1,0,0.1,0c0.3,0,0.7,0,0.8,0c0.1,0,0.2-0.1,0.2-0.2c0-0.1-0.2-0.6-0.3-0.8c-0.1-0.2-0.2-0.6-0.2-0.8
	c0-0.2-0.1-4.2-0.1-4.2s-0.1-0.2,0-0.5s0.2-0.8,0.3-1c0.1-0.2,0.1-0.5,0-0.8c-0.1-0.2,5.4-4.5,5.4-4.5s3.9-1.2,4.5-2.4
	c0.5-1.1,0.6-2.5,0.6-2.5s-0.1,0.4,0.1,0.6s0.3,0.3,0.4,0.4c0.1,0.2,0.2,0.3,0.4,0.4c0.1,0,0.2,0,0.3,0c0.1,0,0.2,0,0.3-0.1
	c0.1-0.1,0.9-0.7,1.2-1c0.3-0.3,0.9-0.8,1.4-0.9s0.6-0.2,0.6-0.2c0.1,0,0.2-0.1,0-0.3c-0.1-0.2-0.2-0.3-0.2-0.4s-0.1-0.1,0-0.2
	c0-0.1,0.8-0.3,0.7-1.5s0-2.1,0.7-2.7v-0.4c0,0,0-0.2-0.1-0.4s-0.2-0.4-0.2-0.5s-0.1-0.3,0-0.5s0.1-0.4,0-0.6
	c-0.1-0.2-0.2-0.3-0.5-0.5s-0.8-0.4-0.8-1.5c0,0-0.8-0.6-1-1.5c-0.1-0.9-0.1-1.5-0.1-2.1c0-0.6,0.1-1.8,0.1-1.8s-0.4-0.2-0.5-0.9
	c-0.1-0.7,0-1.4-0.1-1.6c-0.1-0.2-0.2-0.5-0.4-0.5c0,0,0,0-0.1,0c-0.2,0.1-0.5,0.2-0.7,0.2c-0.1,0-0.2,0-0.2-0.1
	c-0.2-0.2-0.7-0.6-1.1-0.6c0,0,0,0,0,0c-0.1,0-0.2,0-0.3,0c-0.3,0-0.6,0-0.8-0.2c-0.2-0.2-0.3-0.4-0.4-0.5c-0.1-0.1-0.2-0.2-0.4-0.2
	c0,0,0,0-0.1,0c-0.2,0-0.6,0.1-0.6,0.1s-0.2-0.4-0.5-0.4c0,0,0,0,0,0c-0.3,0-0.9,0.3-1,0.4c-0.1,0.1-0.3,0.2-0.5,0.2
	c0,0-0.1,0-0.1,0c-0.1-0.1-0.4-0.2-0.7-0.2c-0.1,0-0.2,0-0.3,0.1c-0.3,0.3-0.6,0.6-0.7,0.7s-0.4,0.3-0.6,0.3c0,0-0.1,0-0.1,0
	c-0.2,0-0.2,0-0.2,0s-0.1,0-0.2-0.2c-0.1-0.1-0.4-0.2-0.7-0.2c-0.1,0-0.1,0-0.2,0c-0.3,0.1-0.7,0.1-0.9,0.1c-0.1,0-0.1,0-0.1,0
	c-0.1,0-3.4-0.6-3.4-0.6s-0.1-0.1-0.3-0.1c-0.1,0-0.2,0-0.2,0.1c-0.3,0.1-0.3,0.2-0.4,0.3c-0.1,0-0.2,0-0.2,0c0,0,0,0-0.1,0
	c-0.1,0-7.3-2.3-7.3-2.3s-0.4-0.1-0.5-0.2c0,0,0-0.1,0-0.3S29.5,1.1,29.5,1.1z"/>
<path id="White_Texas" class="st2" d="M28.4,1.9l0,7.8c0,0.3,0.1,0.9,0.1,0.9s0.6,0.4,1.2,0.6c7.2,2.3,7.3,2.2,7.4,2.3
	c0.1,0,0.2,0,0.2,0c0.2,0,0.4,0.1,0.5,0.1c0.2-0.1,0.4-0.3,0.5-0.4l0,0c2.2,0.4,3.3,0.6,3.4,0.6c0.1,0,0.1,0,0.3,0
	c0.3,0,0.7,0,1.1-0.1c0,0,0,0,0,0c0,0,0,0,0,0c0.2,0.2,0.4,0.3,0.4,0.3l0.2,0.1l0.2,0c0,0,0.2,0,0.3,0c0,0,0.1,0,0.2,0
	c0.5,0,1-0.3,1.3-0.6c0.1-0.1,0.2-0.2,0.3-0.3c0.1-0.1,0.1-0.1,0.2-0.2c0,0,0.1,0,0.1,0l0,0c0.2,0.1,0.4,0.2,0.4,0.2
	c0.1,0.1,1.3-0.3,1.4-0.5l0.2,0.4l0.8-0.1c0,0,0.1,0,0.3,0c0,0.1,0.1,0.1,0.1,0.2c0.5,0.7,1.3,0.7,1.6,0.7c0.1,0,0.2,0,0.2,0
	c0.1,0,0.3,0.2,0.4,0.3c0.1,0,0.1,0.2,0.2,0.2c0.2,0.2,0.5,0.2,0.8,0.2c0.1,0,0.2,0,0.3,0c0,0,0,0.1,0,0.1c0,0.2,0,0.5,0,0.8
	c0,0.6,0.2,1,0.4,1.2c0,0.4-0.1,1-0.1,1.3c0,0.7,0,1.3,0.1,2.3c0.1,0.9,0.6,1.5,1,1.9c0.1,1.1,0.8,1.5,1.1,1.7c0,0,0.1,0,0.1,0.1
	c0.1,0.1,0.1,0.1,0.1,0.1c-0.2,0.5-0.2,0.9,0.1,1.3c0,0,0,0,0,0.1c0,0.1,0.1,0.2,0.1,0.3c-0.7,0.9-0.7,2-0.7,3.1
	c0,0.4-0.1,0.5-0.1,0.5c-0.1,0-0.7,0.4-0.7,0.4s0.1,0.3,0.1,0.7c-0.7,0.3-1.4,1-1.5,1.1c-0.1,0.1-0.4,0.4-0.7,0.6
	c-0.1-0.1-0.1-0.1-0.2-0.2l-0.1-1.3l-1.2,0.3L50.3,31l-0.2,0L50,31.1c0,0,0.2,2.4-0.8,3.2c-0.9,0.8-4.1,1.4-5.5,2.5
	c-3.1,3.8-4.2,4.2-3.9,4.8c0,0,0,0.1,0,0.2c0,0.1-0.1,0.2-0.1,0.3c-0.1,0.2-0.1,0.5-0.2,0.7c-0.1,0.4-0.1,1.1-0.1,1.1l0.3,0.3
	c0,0-0.2,0.3-0.5,0.7c0,1,0.4,2.8,0.4,2.9c0,0.2,0,0.4,0.1,0.6c-0.2-0.1-0.4-0.2-0.7-0.3c-2.3-0.6-3.5-0.9-3.8-1c0,0-0.1,0-0.2-0.1
	l0,0c-0.2-0.1-0.5-0.2-1-0.3c-0.1,0-0.1-0.1-0.2-0.2l-0.2-0.3l-0.3-0.1c0,0-0.1,0-0.1,0v-0.9v-0.7l-0.6-0.3l-0.5-0.2
	c-0.2-0.1-0.3-0.3-0.4-0.4v-1.1v-0.3v-0.6l-1.3-1.5l-1.6-3c-0.1-0.2-0.2-0.3-0.4-0.5l-1.8-1.5L24,31.5c-0.3-0.3-0.7-0.5-1.1-0.3
	l-3.2,1c-0.2,0.1-0.5,0.2-0.6,0.4l-1.2,1.8c-0.2,0.3-0.6,0.4-0.9,0.3l-4.9-2L12,32.5c-0.3-0.4-0.8-0.8-1.4-1.1
	c-0.4-0.2-0.9-0.5-1.2-0.7c-0.2-0.2-0.2-0.2,0-0.8c0,0,0-0.1,0-0.1c0.2-1-0.1-1.5-0.5-1.8c0.2-0.5,0-1.1-0.6-1.6
	c-0.4-0.3-0.9-0.5-1.7-0.7c-0.1,0-0.1-0.1-0.1-0.1l-0.1-0.5l-0.6-0.2c-0.4-0.1-0.9-0.8-1-1.3l-0.1-0.4l-0.4-0.2
	c-0.6-0.3-1.1-0.6-1.4-0.9c-0.3-0.3-0.1-0.8,0.3-0.8H16h1.1L17,11l0.1-9L28.4,1.9z M48.5,12.7L48.5,12.7L48.5,12.7 M46.4,12.8
	L46.4,12.8L46.4,12.8 M49.6,13L49.6,13L49.6,13 M38.5,13.1L38.5,13.1L38.5,13.1 M51.4,13.9L51.4,13.9L51.4,13.9 M53.8,14.2
	L53.8,14.2L53.8,14.2"/>
<polygon id="Star" class="st0" points="21.4,22.7 21.8,24 23.2,24 22.1,24.8 22.5,26.1 21.4,25.3 20.3,26.1 20.7,24.8 19.6,24 
	20.9,24 "/>
<path id="Blue_SA" class="st1" d="M48.1,37.9c0.2,0.4,0.2,0.6,0.5,1.2c0.4,1,0.8,1.8,1.5,2.8c0.9,1.4,1.2,1.7,2.5,2.7
	c0.4,0.3,4.9,2.9,5.2,3.1c-7.6,0-15.1,0-22.7,0c0.2-0.1,2.6-1.7,3.6-2.3c0.9-0.6,1.4-1,1.8-1.7c0.5-0.8,0.7-1.6,0.5-2.5
	c-1.3,0.5-2.3,1-5.4,1.4c-0.8,0.1-4.6,0.5-8.2-0.4c-0.3-0.1-2-0.5-2.8-0.9c0.1,1.5,1.1,2.7,2.1,3.6c0.7,0.6,4,2.8,4.1,3
	c-7.5,0-14.9,0-22.4,0c0.3-0.2,2.5-1.8,3.3-2.4c0.8-0.6,1.6-1.1,2.3-1.8c1.1-0.9,1.9-1.9,2.6-3.2c0.3-0.5,1-2.2,1.2-2.6
	c-0.1-0.1-0.8-0.7-1.1-0.9c-0.1-0.1-0.6-0.1-0.8-0.1c-0.7,0-1.1,0.2-1.8,0.4c-0.8,0.3-2.1,1.1-2.4,1.3c-0.8-0.8-1.6-1.5-2.4-2.3
	c3.2-4.1,6.5-8.3,9.7-12.5c0.1,0.3,0.4,2,0.4,2.5c0.1,0.4,0.2,1,0.3,1.4c0.2,0.6,0.3,0.9,0.6,1.4c0.2,0.4,0.5,0.7,0.7,1.1
	c1-2.3,1.9-4.4,2.9-6.6c-0.4-0.2-0.8-0.4-1.2-0.6c-1.4-0.7-2.6-1.4-3.8-2.4c-0.7-0.6-1.4-1.4-1.9-2.2c-0.5-0.8-1.3-2.1-1.4-4.2
	c-0.1-1.9,0.5-3.4,0.9-4.3c0.4-0.9,1-1.7,1.6-2.5c0.9-1.2,2.1-2.2,3.4-2.9c3-1.7,6.3-2.1,6.8-2.2c1-0.1,1.9-0.2,2.9-0.1
	c2.5,0.1,5.7,1.2,6.2,1.4c1.7,0.7,2.5,0.7,3,0.6c1.5-0.3,2.3-1.6,2.4-1.7c1.3,0.8,2.6,1.5,4.1,2.4c-2.2,3.7-4.5,7.4-6.7,11.1
	c-0.1-0.2-0.9-2.2-1.3-3.1c-0.4-0.9-1-1.6-1.9-2.2c1.4,3.6,2.9,7.3,4.3,11c0.3,0.1,3.5,0.8,5.7,1.9c3.5,1.7,4.2,4.9,4.4,6.1
	c0.3,2,0.2,4.2-1.3,6.3C49.4,36.6,48.8,37.3,48.1,37.9z M35.4,9.9c-2.8-1.4-5.6-1.2-6.3-1.2c-0.4,0-3.9,0.5-5.9,3.1
	c-0.5,0.7-1,1.4-0.8,2.3c0.1,0.6,0.5,1.3,1,1.7c0.9,0.7,1.9,1.5,3,1.9c1.2-2.6,2.5-5.2,3.7-7.8C31.9,9.9,33.6,9.9,35.4,9.9z
	 M35.7,27.3c-1.7-0.3-3.2-0.8-4.8-1.2c-0.4,0.8-0.8,1.7-1.2,2.5c2.2,0,4.3,0,6.5,0C36.1,28.1,35.9,27.8,35.7,27.3z M28.2,34.7
	c0,0,1.8,0.7,4.7,0.7c2.1,0,4.4-0.6,4.7-0.8C34.3,34.7,31.5,34.7,28.2,34.7z"/>
<path id="Orange_SA" class="st0" d="M52.7,46.4c-4.4,0-8.5,0-13,0c0.3-0.2,0.4-0.3,0.7-0.5c1.1-0.9,1.7-2,2-3.4
	c0.1-0.4,0.1-0.7,0.1-1.1c0-0.1,0-0.2-0.1-0.4c-1-2.5-3-7.7-3-7.7c-4.3,0-8.8,0-13.1,0c-0.1,0.4-2.1,5.2-2.9,7.2
	c-0.1,0.3-0.2,0.8-0.1,1.1c0.3,2.6,2.9,4.6,3.2,4.8c-4.8,0-9,0-13.8,0c0.4-0.2,0.7-0.4,1-0.7c1.6-1.2,3-2.6,4-4.3
	c0.4-0.7,0.8-1.5,1.1-2.2c1.3-3,2.6-6.1,3.9-9.1c0.9-2,2.6-6,2.6-6c1.5,0.6,2.9,1.1,4.4,1.6c-0.7,1.5-1.3,2.8-2,4.3
	c3.6,0,7.2,0,10.8,0c-0.3-0.9-0.6-1.4-1-2.3c1.9,0.4,3.7,0.9,5.6,1.5c0.3,0.8,0.6,1.3,0.9,2.1c1.2,3,2.2,5.6,3.4,8.4
	c0.8,1.8,1.7,3.4,2.9,4.8C50.9,45.2,51.7,45.9,52.7,46.4z M19.4,19.2c1,1,2.4,1.9,3.7,2.5c2.5,1.1,4.4,1.9,7,2.7
	c1.8,0.6,3.7,1.1,5.6,1.5c1.3,0.3,2.4,0.5,3.8,0.9c1,0.3,2.1,0.5,3.1,0.8c0.8,0.2,1.6,0.5,2.3,1c0.5,0.4,1.1,1.2,1.1,2.2
	c0,0.4-0.1,0.8-0.4,1.2c0.2,0.5,1.8,4.5,1.9,4.6c0,0,1.2-1.2,1.7-2.5c0.8-2,0.6-3.3,0.3-5c-0.3-1.3-0.9-2.3-1.8-3.1
	c-1-1-2.5-1.7-3.8-2C42.5,23.6,36,22,34,21.5c-1.9-0.5-3.7-0.9-5.7-1.6c-1.6-0.6-3-1.1-4.5-2c-0.5-0.3-1.2-0.8-1.6-1.3
	c-1.3-1.4-1.7-3.2-0.6-4.9c0.3-0.5,0.8-1.1,1.2-1.5c0.8-0.8,1.8-1.4,2.8-1.8c2-0.8,4-1.2,6.1-0.9C33.4,7.6,35,8,36.4,8.9
	c1.4,0.9,2.6,2,3.4,3.5c0.1,0.3,0.2,0.4,0.3,0.7c1.5-2.6,3.1-5,4.6-7.6c-0.6-0.4-1.3-0.7-1.9-1.1c-0.4,0.4-0.6,0.6-1,0.8
	c-1.3,0.7-2.5,0.6-3.8,0.2c-0.7-0.2-1.4-0.5-2-0.7c-0.5-0.2-1-0.4-1.5-0.5c-1.1-0.3-2.3-0.4-3.4-0.5c-1-0.1-2,0-3,0.1
	C27.4,3.8,26.7,4,26,4.2c-1,0.3-2,0.6-3,1c-2,1-3.6,2.3-4.9,4.4c-0.3,0.5-0.6,1-0.8,1.6c-0.4,1.3-0.6,2.1-0.5,3.3
	C17.1,16.3,17.9,17.8,19.4,19.2z M31,11.2c-1.2,2.4-2.2,4.6-3.3,7c0.1,0,2,0.7,3,1c3.2,0.9,8.3,2,8.8,2.1c-1.4-3.5-2.6-6.7-4-10.1
	C33.9,11.2,32.5,11.2,31,11.2z M40.5,39.9c-0.6-1.4-1.2-2.7-1.7-4.1c-4.1,1.4-8,1.6-12.1-0.1c-0.6,1.4-1.2,2.8-1.7,4.2
	c0.1,0,0.2,0.1,0.2,0.1c2.5,1,4.8,1.4,7.3,1.3c1.5,0,2.9-0.1,4.3-0.4c1-0.2,1.9-0.4,2.8-0.7C40.1,40.2,40.2,40.1,40.5,39.9z
	 M16,35.5c0.6,0,1,0,1.5,0.5c0.3,0.2,0.5,0.4,0.8,0.6c0.7-1.6,1.4-3.3,2.1-4.9c-1.2-1.4-2-2.8-2.3-4.6c-2.3,3-4.7,6.1-7,9.1
	c0.3,0.3,0.6,0.5,0.8,0.8c0.3-0.1,0.6-0.4,0.9-0.5C13.7,36,14.8,35.6,16,35.5z"/>
</svg>
